<?xml version="1.0" encoding="UTF-8" standalone="no"?>
<!-- Created with Inkscape (http://www.inkscape.org/) -->

<svg
   width="512"
   height="512"
   viewBox="0 0 135.46666 135.46667"
   version="1.1"
   id="svg5"
   inkscape:version="1.1.1 (3bf5ae0d25, 2021-09-20)"
   sodipodi:docname="logo-211203.svg"
   xmlns:inkscape="http://www.inkscape.org/namespaces/inkscape"
   xmlns:sodipodi="http://sodipodi.sourceforge.net/DTD/sodipodi-0.dtd"
   xmlns="http://www.w3.org/2000/svg"
   xmlns:svg="http://www.w3.org/2000/svg">
  <sodipodi:namedview
     id="namedview7"
     pagecolor="#ffffff"
     bordercolor="#666666"
     borderopacity="1.0"
     inkscape:pageshadow="2"
     inkscape:pageopacity="0.0"
     inkscape:pagecheckerboard="0"
     inkscape:document-units="mm"
     showgrid="false"
     units="px"
     width="512px"
     inkscape:zoom="0.64052329"
     inkscape:cx="199.83661"
     inkscape:cy="436.36196"
     inkscape:window-width="1536"
     inkscape:window-height="953"
     inkscape:window-x="-8"
     inkscape:window-y="-8"
     inkscape:window-maximized="1"
     inkscape:current-layer="layer1" />
  <defs
     id="defs2" />
  <g
     inkscape:label="Layer 1"
     inkscape:groupmode="layer"
     id="layer1">
    <g
       id="g497"
       transform="matrix(1.0020965,0,0,1.0020965,16.999211,-119.76239)">
      <rect
         style="fill:#5c3566;stroke-width:0.529;stroke-opacity:0"
         id="rect411"
         width="26.023643"
         height="97.48539"
         x="65.827805"
         y="145.36124"
         transform="rotate(9.5216759)" />
      <path
         sodipodi:type="star"
         style="fill:#4e9a06;stroke-width:1.99937;stroke-opacity:0"
         id="path53"
         inkscape:flatsided="false"
         sodipodi:sides="5"
         sodipodi:cx="179.5407"
         sodipodi:cy="663.51996"
         sodipodi:r1="111.3843"
         sodipodi:r2="55.692146"
         sodipodi:arg1="-0.54522716"
         sodipodi:arg2="0.083091375"
         inkscape:rounded="0.5"
         inkscape:randomized="0"
         d="m 274.77533,605.75469 c 19.17996,31.62102 -36.66518,25.53184 -39.73463,62.38748 -3.06946,36.85564 53.0136,40.0882 28.86715,68.10086 -24.14644,28.01266 -35.61239,-26.98089 -71.6127,-18.51109 -36.00031,8.4698 -21.74403,62.80686 -55.84732,48.49862 -34.10328,-14.30824 14.65551,-42.20695 -4.52445,-73.82797 -19.17996,-31.62102 -66.452151,-1.27142 -63.382698,-38.12706 3.069453,-36.85564 44.669998,0.89556 68.816438,-27.1171 24.14644,-28.01266 -19.32565,-63.59265 16.67466,-72.06244 36.00031,-8.4698 12.95206,42.76043 47.05535,57.06867 34.10328,14.30824 54.50824,-38.03099 73.6882,-6.40997 z"
         transform="matrix(0.26458333,0,0,0.26458333,-8.674548,-11.979138)"
         inkscape:transform-center-x="1.5752232"
         inkscape:transform-center-y="-0.56428328" />
      <path
         sodipodi:type="star"
         style="fill:#ce5c00;stroke-width:1.99937;stroke-opacity:0"
         id="path55"
         inkscape:flatsided="false"
         sodipodi:sides="5"
         sodipodi:cx="307.56104"
         sodipodi:cy="430.89767"
         sodipodi:r1="97.997093"
         sodipodi:r2="48.998547"
         sodipodi:arg1="0.39234014"
         sodipodi:arg2="1.0206587"
         inkscape:rounded="0.5"
         inkscape:randomized="0"
         d="m 398.112,468.36704 c -12.44106,30.06588 -37.19699,-12.71157 -64.9343,4.29957 -27.73731,17.01115 -0.83151,58.4701 -33.27036,55.92882 -32.43886,-2.54128 0.59492,-39.30453 -24.15494,-60.42755 -24.74986,-21.12302 -55.86532,17.27745 -63.47257,-14.35904 -7.60726,-31.63648 37.56467,-11.57996 50.00572,-41.64585 12.44106,-30.06588 -33.69515,-47.79205 -5.95784,-64.80319 27.73731,-17.01114 22.62132,32.14772 55.06017,34.689 32.43886,2.54128 35.04057,-46.81456 59.79042,-25.69154 24.74986,21.12302 -23.58392,31.44835 -15.97666,63.08483 7.60726,31.63648 55.35142,18.85906 42.91036,48.92495 z"
         transform="matrix(0.26458333,0,0,0.26458333,-14.044506,55.764951)"
         inkscape:transform-center-x="0.46709635"
         inkscape:transform-center-y="1.4156627" />
      <path
         sodipodi:type="star"
         style="fill:#204a87;stroke-width:1.99937;stroke-opacity:0"
         id="path79"
         inkscape:flatsided="false"
         sodipodi:sides="5"
         sodipodi:cx="357.52017"
         sodipodi:cy="704.11182"
         sodipodi:r1="127.92509"
         sodipodi:r2="63.962547"
         sodipodi:arg1="-0.41450687"
         sodipodi:arg2="0.21381166"
         inkscape:rounded="0.5"
         inkscape:randomized="0"
         d="m 474.61193,652.59144 c 17.10645,38.8783 -45.57301,23.58423 -54.58569,65.09235 -9.01268,41.50813 54.36533,53.58498 22.67606,81.86823 -31.68927,28.28326 -36.51276,-36.05457 -78.77441,-31.79943 -42.26164,4.25515 -34.16252,68.26317 -70.85402,46.86489 -36.6915,-21.39828 23.00687,-45.86718 5.90042,-84.74548 -17.10645,-38.87829 -75.47893,-11.39601 -66.46625,-52.90413 9.01268,-41.50813 50.73179,7.7071 82.42107,-20.57616 31.68927,-28.28326 -12.48602,-75.30629 29.77562,-79.56144 42.26164,-4.25515 8.3471,50.63043 45.0386,72.02871 36.6915,21.39829 67.76215,-35.14583 84.8686,3.73246 z"
         transform="matrix(0.26458333,0,0,0.26458333,-41.720446,-33.045897)"
         inkscape:transform-center-x="0.78284446"
         inkscape:transform-center-y="-1.6728367" />
    </g>
  </g>
</svg>
